<svg width="1440" height="900" viewBox="0 0 1440 900" xmlns="http://www.w3.org/2000/svg" stroke="#000" fill="none">
<defs>
  <marker id="arrow" viewBox="0 0 10 10" refX="5" refY="5" markerWidth="6" markerHeight="6" orient="auto-start-reverse">
    <path d="M 0 0 L 10 5 L 0 10 z" fill="#000" stroke="none" />
  </marker>
</defs>

<!-- BACKGROUND -->
<rect x="0" y="0" width="1440" height="900" fill="#ffffff" stroke="none"/>
  
<!-- SIDEBAR -->
<rect x="0" y="0" width="240" height="900"/>
<circle cx="40" cy="40" r="12"/>
<rect x="60" y="30" width="120" height="18"/>

<!-- MENU ITEMS -->
<rect x="20" y="100" width="200" height="36" fill="#e2e8f0" stroke="none"/> <!-- ACTIVE -->
<rect x="20" y="150" width="200" height="36"/>
<rect x="20" y="200" width="200" height="36"/>
<rect x="20" y="250" width="200" height="36"/>
<rect x="20" y="300" width="200" height="36"/>

<!-- INDICATOR ARROW FOR ACTIVE MENU -->
<path d="M 230 118 L 240 108 L 240 128 Z" fill="#000" stroke="none"/>

<!-- HEADER -->
<rect x="240" y="0" width="1200" height="80"/>
<rect x="300" y="25" width="320" height="30"/>
<rect x="1050" y="25" width="160" height="30"/>
<circle cx="1250" cy="40" r="16"/>

<!-- TITLE -->
<rect x="300" y="120" width="240" height="20"/>
<rect x="300" y="150" width="180" height="12"/>

<!-- KPI CARDS -->
<rect x="300" y="190" width="260" height="120"/>
<rect x="580" y="190" width="260" height="120"/>
<rect x="860" y="190" width="260" height="120"/>
<rect x="1140" y="190" width="260" height="120"/>

<!-- GRAPH -->
<rect x="300" y="340" width="700" height="260"/>

<!-- DONUT -->
<circle cx="1150" cy="470" r="120"/>
<circle cx="1150" cy="470" r="60"/>

</svg>